<svg width="332" height="16" viewBox="0 0 332 16" fill="none" xmlns="http://www.w3.org/2000/svg">
    <path d="M30.4667 6.99454C30.4667 7.14998 30.3446 7.27433 30.192 7.27433H22.5118L21.8811 7.76138C21.8811 7.76138 21.7793 7.75102 21.7997 7.6992L22.2473 6.51786V0.258789H20.2433V15.7303H22.2473V8.55931C22.2473 8.40387 22.3693 8.27951 22.5219 8.27951H30.2022C30.3548 8.27951 30.4768 8.40387 30.4768 8.55931V15.7303H32.4808V0.258789H30.4768V6.99454H30.4667Z" fill="blue"/>
    <path d="M41.7378 15.7199H51.3712V14.7769H44.0164C43.8638 14.7769 43.7418 14.6526 43.7418 14.4971V8.50749C43.7418 8.35205 43.8638 8.2277 44.0164 8.2277H50.4251V7.2847H44.1487L43.5485 7.74065C43.5485 7.74065 43.4468 7.73029 43.4671 7.67848L43.7519 6.922V1.47122C43.7519 1.31578 43.874 1.19143 44.0266 1.19143H51.3813V0.258789H41.748V15.7303L41.7378 15.7199Z" fill="blue"/>
    <path d="M72.9572 0.258789H68.6339V15.7303H70.6379V8.91164H72.9572C76.2938 8.91164 79.4371 7.86501 79.4371 4.59039C79.4371 1.31578 76.2938 0.258789 72.9572 0.258789ZM72.825 8.02045H71.0346L70.465 8.45568C70.465 8.45568 70.3632 8.44532 70.3836 8.3935L70.6379 7.71993V1.41941C70.6379 1.26397 70.76 1.13962 70.9125 1.13962H72.825C75.5105 1.13962 77.189 1.99972 77.189 4.58003C77.189 7.16034 75.5105 8.02045 72.825 8.02045Z" fill="blue"/>
    <path d="M106.404 15.15C106.404 15.15 106.303 15.1396 106.323 15.0878L106.638 14.2692V0.258789H104.634V15.7303H114.258V14.7873H106.893L106.404 15.1603V15.15Z" fill="blue"/>
    <path d="M146.27 15.2332C143.341 15.2332 140.381 13.1503 140.381 8C140.381 2.84974 143.331 0.766839 146.27 0.766839C148.356 0.766839 150.665 1.20207 151.906 4.42487H152.099V1.51295C150.868 0.590674 148.641 0 146.27 0C141.815 0 138.132 3.10881 138.132 8C138.132 12.8912 141.815 16 146.27 16C148.376 16 150.472 15.5648 152.16 14.4663V11.5544H151.967C150.736 14.7772 148.376 15.2332 146.27 15.2332Z" fill="blue"/>
    <path d="M194.081 15.2332C191.152 15.2332 188.191 13.1503 188.191 8C188.191 2.84974 191.141 0.766839 194.081 0.766839C196.167 0.766839 198.476 1.20207 199.717 4.42487H199.91V1.51295C198.679 0.590674 196.451 0 194.081 0C189.626 0 185.943 3.10881 185.943 8C185.943 12.8912 189.626 16 194.081 16C196.187 16 198.282 15.5648 199.971 14.4663V11.5544H199.778C198.547 14.7772 196.187 15.2332 194.081 15.2332Z" fill="blue"/>
    <path d="M215.077 0C210.622 0 206.858 3.10881 206.858 8C206.858 12.8912 210.622 16 215.077 16C219.533 16 223.297 12.8912 223.297 8C223.297 3.10881 219.533 0 215.077 0ZM215.077 15.2332C212.148 15.2332 209.116 13.1503 209.116 8C209.116 2.84974 212.148 0.766839 215.077 0.766839C218.007 0.766839 221.038 2.84974 221.038 8C221.038 13.1503 218.007 15.2332 215.077 15.2332Z" fill="blue"/>
    <path d="M243.387 0.258789L238.85 13.3883L234.029 0.258789H231.618L230.967 15.7303H232.004L232.543 3.33651C232.554 3.03599 232.96 2.97381 233.072 3.25361L237.721 15.7407H239.033L243.306 3.37796C243.408 3.0878 243.825 3.14998 243.835 3.46086L244.323 15.7407H246.368L245.717 0.269152H243.397L243.387 0.258789Z" fill="blue"/>
    <path d="M302.632 11.5645C302.632 11.8339 302.296 11.9479 302.144 11.7303L293.853 0.258789H291.513V15.7303H292.571V2.6733C292.571 2.40387 292.907 2.28988 293.06 2.50749L302.601 15.7199H303.68V0.258789H302.622V11.5645H302.632Z" fill="blue"/>
    <path d="M318.257 7.75102C318.155 7.92718 317.901 7.92718 317.789 7.75102L313.293 0.258789H311.116L316.436 9.10853V15.7303H318.44V9.12926L323.821 0.269152H322.723L318.247 7.76138L318.257 7.75102Z" fill="blue"/>
    <path d="M89.5893 0.258789L83.6282 15.7303H84.6658L86.6596 10.58C86.7003 10.4764 86.802 10.4039 86.9139 10.4039H92.7224C92.8343 10.4039 92.936 10.4764 92.9767 10.58L94.9502 15.7303H97.0559L91.0948 0.258789H89.5893ZM92.6715 10.0619L91.6543 9.2847C91.4712 9.13962 91.2372 9.06708 91.0032 9.06708H87.6565C87.4632 9.06708 87.331 8.87019 87.4022 8.68366L89.5893 3.05672C89.6808 2.81837 90.0063 2.81837 90.0979 3.05672L92.7631 9.99972C92.7834 10.0515 92.7224 10.093 92.6817 10.0619H92.6715Z" fill="blue"/>
    <path d="M125.173 0.258789L119.212 15.7303H120.249L122.243 10.58C122.284 10.4764 122.385 10.4039 122.497 10.4039H128.306C128.418 10.4039 128.519 10.4764 128.56 10.58L130.534 15.7303H132.639L126.678 0.258789H125.173ZM128.255 10.0619L127.238 9.2847C127.055 9.13962 126.821 9.06708 126.587 9.06708H123.24C123.047 9.06708 122.914 8.87019 122.986 8.68366L125.173 3.05672C125.264 2.81837 125.59 2.81837 125.681 3.05672L128.346 9.99972C128.367 10.0515 128.306 10.093 128.265 10.0619H128.255Z" fill="blue"/>
    <path d="M276.478 0.258789L270.517 15.7303H271.555L273.549 10.58C273.589 10.4764 273.691 10.4039 273.803 10.4039H279.612C279.723 10.4039 279.825 10.4764 279.866 10.58L281.839 15.7303H283.945L277.984 0.258789H276.478ZM279.561 10.0619L278.543 9.2847C278.36 9.13962 278.126 9.06708 277.892 9.06708H274.546C274.352 9.06708 274.22 8.87019 274.291 8.68366L276.478 3.05672C276.57 2.81837 276.896 2.81837 276.987 3.05672L279.652 9.99972C279.673 10.0515 279.612 10.093 279.571 10.0619H279.561Z" fill="blue"/>
    <path d="M329.467 0.269531C328.073 0.269531 326.934 1.43015 326.934 2.84984C326.934 4.26953 328.073 5.43015 329.467 5.43015C330.861 5.43015 332 4.26953 332 2.84984C332 1.43015 330.861 0.269531 329.467 0.269531ZM329.467 5.07782C328.256 5.07782 327.27 4.07264 327.27 2.83948C327.27 1.60632 328.256 0.601137 329.467 0.601137C330.678 0.601137 331.664 1.60632 331.664 2.83948C331.664 4.07264 330.678 5.07782 329.467 5.07782Z" fill="black"/>
    <path d="M329.935 2.87026C330.118 2.83918 330.26 2.76664 330.362 2.64228C330.464 2.51793 330.515 2.36249 330.515 2.17596C330.515 2.03089 330.484 1.9169 330.433 1.82363C330.383 1.73037 330.311 1.65783 330.23 1.60602C330.138 1.5542 330.037 1.51275 329.925 1.49203C329.813 1.4713 329.691 1.46094 329.559 1.46094H328.684V4.09306H329.05V2.93244H329.487L330.108 4.09306H330.555L329.843 2.89099H329.925L329.935 2.87026ZM329.477 2.6112H329.05V1.75109H329.518C329.579 1.75109 329.65 1.75109 329.711 1.76146C329.782 1.76146 329.843 1.79254 329.904 1.81327C329.965 1.84436 330.016 1.88581 330.057 1.94798C330.098 2.01016 330.118 2.0827 330.118 2.17596C330.118 2.27959 330.098 2.36249 330.057 2.42467C330.016 2.48684 329.965 2.5283 329.894 2.55938C329.833 2.59047 329.762 2.60083 329.691 2.6112C329.62 2.6112 329.548 2.6112 329.477 2.6112Z" fill="blue"/>
    <path d="M160.359 15.7199H169.993V14.7769H162.638C162.485 14.7769 162.363 14.6526 162.363 14.4971V8.50749C162.363 8.35205 162.485 8.2277 162.638 8.2277H169.047V7.2847H162.77L162.17 7.74065C162.17 7.74065 162.068 7.73029 162.089 7.67848L162.374 6.922V1.47122C162.374 1.31578 162.496 1.19143 162.648 1.19143H170.003V0.258789H160.37V15.7303L160.359 15.7199Z" fill="blue"/>
    <path d="M259.846 0.258789H255.523V15.7303H257.527V8.91164H259.846C263.183 8.91164 266.326 7.86501 266.326 4.59039C266.326 1.31578 263.183 0.269152 259.846 0.269152V0.258789ZM259.714 8.02045H257.924L257.354 8.45568C257.354 8.45568 257.252 8.44532 257.273 8.3935L257.527 7.71993V1.41941C257.527 1.26397 257.649 1.13962 257.802 1.13962H259.714C262.4 1.13962 264.078 1.99972 264.078 4.58003C264.078 7.16034 262.4 8.02045 259.714 8.02045Z" fill="blue"/>
    <path d="M0 0.258789V1.20179H5.4016V15.7303H7.40558V1.73029L7.01903 1.20179L6.89696 1.03599C6.89696 1.03599 6.90713 0.932364 6.95799 0.95309L7.58869 1.20179H12.8072V0.258789H0Z" fill="blue"/>
    </svg>
    